<svg width="41" height="40" viewBox="0 0 41 40" fill="none" xmlns="http://www.w3.org/2000/svg">
<path d="M5.52125 13.75C5.52125 13.7963 5.5025 13.8412 5.5075 13.8875L7.63625 33.0513C7.91875 35.5875 10.055 37.5 12.6063 37.5H28.3938C30.9463 37.5 33.0813 35.5875 33.3625 33.0513L35.4925 13.8875C35.4975 13.84 35.4788 13.7963 35.4788 13.75H5.52125ZM28 20V23.75C28 27.8862 24.6363 31.25 20.5 31.25C16.3638 31.25 13 27.8862 13 23.75V20C12.31 20 11.75 19.44 11.75 18.75C11.75 18.06 12.31 17.5 13 17.5H15.5C16.19 17.5 16.75 18.06 16.75 18.75C16.75 19.44 16.19 20 15.5 20V23.75C15.5 26.5075 17.7425 28.75 20.5 28.75C23.2575 28.75 25.5 26.5075 25.5 23.75V20C24.81 20 24.25 19.44 24.25 18.75C24.25 18.06 24.81 17.5 25.5 17.5H28C28.69 17.5 29.25 18.06 29.25 18.75C29.25 19.44 28.69 20 28 20ZM21.125 11.25L25.2338 3.03375C25.3838 2.73375 25.7413 2.60375 26.0488 2.735L33.6425 5.99C33.9738 6.1325 34.12 6.52125 33.9625 6.84625L31.8338 11.25H21.125ZM9.37125 11.25C9.8125 6.2425 11.3975 2.5 14.25 2.5C17.2475 2.5 18.7088 6.2425 19.1325 11.25H9.37125Z" fill="#F5C544"/>
</svg>
