<svg width="201" height="200" viewBox="0 0 201 200" fill="none" xmlns="http://www.w3.org/2000/svg">
<path d="M100.5 15.0111C100.5 6.72684 107.253 -0.115387 115.444 1.12258C136.196 4.25884 155.575 13.873 170.702 28.7841C189.413 47.2284 200.113 72.2953 200.49 98.5658C200.867 124.836 190.889 150.2 172.715 169.173C154.541 188.147 129.63 199.205 103.368 199.959C77.1056 200.712 51.6016 191.1 32.3696 173.2C13.1376 155.3 1.72264 130.55 0.592549 104.301C-0.537546 78.0524 8.70797 52.4132 26.3304 32.9264C40.577 17.1726 59.3732 6.46305 79.9108 2.14211C88.0176 0.436521 95.152 6.88028 95.627 15.1509C96.102 23.4216 89.6983 30.366 81.7181 32.5896C69.0603 36.1166 57.5464 43.168 48.5977 53.0634C36.266 66.6998 29.7962 84.6415 30.587 103.01C31.3778 121.378 39.3657 138.698 52.8238 151.224C66.282 163.75 84.1291 170.476 102.507 169.949C120.885 169.422 138.317 161.683 151.035 148.406C163.753 135.129 170.734 117.38 170.471 98.9964C170.207 80.6129 162.719 63.0716 149.626 50.1647C140.124 40.7986 128.225 34.419 115.386 31.6236C107.291 29.8612 100.5 23.2954 100.5 15.0111Z" fill="url(#paint0_linear_37_204)"/>
<circle cx="100.75" cy="88.25" r="20.25" fill="#11491E"/>
<path fill-rule="evenodd" clip-rule="evenodd" d="M101.617 78.0045C101.617 77.1761 100.946 76.5045 100.117 76.5045C99.2888 76.5045 98.6173 77.1761 98.6173 78.0045V87.383H89.2389C88.4104 87.383 87.7389 88.0545 87.7389 88.883C87.7389 89.7114 88.4104 90.383 89.2389 90.383H98.6173V99.7612C98.6173 100.59 99.2888 101.261 100.117 101.261C100.946 101.261 101.617 100.59 101.617 99.7612V90.383H110.996C111.824 90.383 112.496 89.7114 112.496 88.883C112.496 88.0545 111.824 87.383 110.996 87.383H101.617V78.0045Z" fill="white"/>
<path d="M73.092 122.496C72.7 123.252 72.518 124.12 72.518 125.1C72.518 126.108 72.7 126.976 73.092 127.732C73.484 128.488 74.03 129.062 74.744 129.468C75.458 129.888 76.298 130.084 77.25 130.084C77.992 130.084 78.664 129.944 79.252 129.664C79.84 129.384 80.316 128.992 80.68 128.474C81.044 127.97 81.282 127.368 81.394 126.668H79.784C79.616 127.298 79.308 127.788 78.86 128.138C78.412 128.502 77.852 128.67 77.18 128.67C76.564 128.67 76.032 128.53 75.584 128.222C75.122 127.914 74.772 127.494 74.534 126.948C74.282 126.416 74.17 125.8 74.17 125.1C74.17 124.4 74.282 123.784 74.534 123.252C74.772 122.72 75.122 122.3 75.584 121.992C76.032 121.684 76.564 121.53 77.18 121.53C77.852 121.53 78.412 121.712 78.874 122.062C79.322 122.426 79.63 122.916 79.798 123.532H81.408C81.296 122.86 81.058 122.258 80.694 121.74C80.316 121.222 79.826 120.816 79.238 120.536C78.65 120.256 77.978 120.116 77.25 120.116C76.298 120.116 75.458 120.326 74.744 120.746C74.03 121.166 73.484 121.74 73.092 122.496ZM88.4788 123.532C87.9468 123.014 87.2468 122.748 86.3928 122.748C85.4268 122.748 84.6708 123.126 84.1388 123.868V120.2H82.6268V130H84.1388V126.374C84.1388 125.66 84.3068 125.1 84.6428 124.68C84.9788 124.26 85.4548 124.05 86.0568 124.05C86.6168 124.05 87.0368 124.232 87.3308 124.582C87.6248 124.946 87.7788 125.464 87.7788 126.136V130H89.2908V126.052C89.2908 124.904 89.0108 124.064 88.4788 123.532ZM90.8338 124.498C90.5398 125.058 90.3998 125.702 90.3998 126.43C90.3998 127.158 90.5398 127.802 90.8478 128.348C91.1558 128.908 91.5758 129.328 92.1358 129.636C92.6958 129.944 93.3398 130.084 94.0958 130.084C94.9498 130.084 95.6638 129.86 96.2378 129.384C96.8118 128.922 97.1618 128.32 97.3018 127.592H95.7898C95.6778 127.998 95.4678 128.306 95.1598 128.53C94.8378 128.754 94.4458 128.852 93.9838 128.852C93.3958 128.852 92.9198 128.67 92.5698 128.306C92.2058 127.942 92.0098 127.452 91.9818 126.822V126.738H97.3858C97.4138 126.542 97.4278 126.36 97.4278 126.164C97.4138 125.478 97.2598 124.876 96.9518 124.358C96.6438 123.854 96.2378 123.448 95.7058 123.168C95.1738 122.888 94.5718 122.748 93.8858 122.748C93.1998 122.748 92.5978 122.902 92.0658 123.21C91.5338 123.518 91.1278 123.938 90.8338 124.498ZM95.8878 125.632H92.0378C92.0938 125.128 92.2898 124.736 92.6538 124.428C93.0178 124.12 93.4378 123.966 93.9418 123.966C94.4738 123.966 94.9078 124.12 95.2578 124.414C95.6078 124.708 95.8178 125.114 95.8878 125.632ZM104.18 129.384C104.754 128.908 105.118 128.264 105.258 127.424H103.718C103.62 127.844 103.424 128.18 103.116 128.432C102.808 128.684 102.416 128.796 101.954 128.796C101.338 128.796 100.848 128.586 100.484 128.138C100.12 127.69 99.9382 127.116 99.9382 126.402C99.9382 125.702 100.12 125.142 100.484 124.694C100.848 124.26 101.338 124.036 101.954 124.036C102.402 124.036 102.78 124.162 103.088 124.4C103.396 124.652 103.592 124.974 103.704 125.38H105.258C105.118 124.568 104.754 123.938 104.194 123.462C103.62 122.986 102.892 122.748 101.996 122.748C101.268 122.748 100.638 122.902 100.092 123.21C99.5462 123.518 99.1262 123.938 98.8322 124.484C98.5242 125.044 98.3842 125.674 98.3842 126.402C98.3842 127.13 98.5242 127.774 98.8182 128.334C99.1122 128.894 99.5322 129.328 100.078 129.636C100.61 129.944 101.24 130.084 101.954 130.084C102.85 130.084 103.592 129.86 104.18 129.384ZM106.471 120.2V130H107.983V128.166L109.257 126.822L111.385 130H113.177L110.335 125.716L113.009 122.832H111.259L107.983 126.332V120.2H106.471ZM117.726 120.2V130H119.336V120.2H117.726ZM126.828 123.532C126.296 123.014 125.596 122.748 124.756 122.748C123.762 122.748 122.992 123.098 122.46 123.77L122.292 122.832H120.976V130H122.488V126.388C122.488 125.66 122.656 125.1 122.992 124.68C123.328 124.26 123.804 124.05 124.406 124.05C124.966 124.05 125.386 124.232 125.68 124.582C125.96 124.946 126.114 125.464 126.114 126.136V130H127.64V126.052C127.64 124.904 127.36 124.064 126.828 123.532Z" fill="white"/>
<defs>
<linearGradient id="paint0_linear_37_204" x1="8.99999" y1="6.27615e-06" x2="322" y2="274" gradientUnits="userSpaceOnUse">
<stop stop-color="#11491E"/>
<stop offset="1" stop-color="#F5C544"/>
</linearGradient>
</defs>
</svg>
