<svg width="40" height="39" viewBox="0 0 40 39" fill="none" xmlns="http://www.w3.org/2000/svg">
<path d="M20 32.3805C20 36.5886 16.4697 40.1307 12.5633 38.566C10.1196 37.5872 7.87005 36.1264 5.95964 34.2432C2.21749 30.5543 0.077413 25.5409 0.00205671 20.2868C-0.0732995 15.0327 1.92212 9.96 5.55693 6.16534C9.19175 2.37068 14.1739 0.158924 19.4264 0.00822644C24.6789 -0.142471 29.7797 1.77999 33.6261 5.36002C37.4725 8.94004 39.7555 13.89 39.9815 19.1398C40.2075 24.3896 38.3584 29.5174 34.8339 33.4148C33.0346 35.4044 30.8724 36.9917 28.4889 38.1091C24.6786 39.8952 20.9511 36.5614 20.7098 32.3602L20.4854 28.4522C20.3681 26.4093 22.1587 24.7111 23.5312 23.1934C24.3703 22.2656 24.8104 21.0449 24.7566 19.7952C24.7028 18.5455 24.1594 17.3672 23.2437 16.5149C22.3281 15.6627 21.1138 15.205 19.8635 15.2409C18.6131 15.2768 17.4271 15.8033 16.5618 16.7066C15.6965 17.61 15.2215 18.8175 15.2394 20.0683C15.2574 21.319 15.7668 22.5125 16.6577 23.3906C18.1149 24.8271 20 26.4199 20 28.4661V32.3805Z" fill="#F5C544"/>
</svg>
