<svg width="111" height="125" viewBox="0 0 111 125" fill="none" xmlns="http://www.w3.org/2000/svg">
<path d="M50.9947 98.5801C75.8782 98.5801 96.0502 104.426 96.0502 111.637C96.0502 118.848 75.8782 124.693 50.9947 124.693C26.1112 124.693 5.93922 118.848 5.93922 111.637C5.93922 104.426 26.1112 98.5801 50.9947 98.5801Z" fill="#73A880"/>
<path d="M72.4896 115.506H21.2218V84.9334H72.4896V115.506Z" fill="#152B1A"/>
<path d="M69.2859 96.1658H17.9311L21.135 84.9336H72.4896L69.2859 96.1658Z" fill="#A0A0A0"/>
<path d="M72.4896 115.507L80.8546 107.142V76.8251L72.4896 84.9334V115.507Z" fill="#AFA9A1"/>
<path d="M72.4896 84.9334L75.4428 98.7347L83.0971 88.9169L80.8544 76.8251" fill="#A0A0A0"/>
<path d="M72.8278 76.7437H29.5952L21.135 84.9336H72.4898L80.8544 76.8253L72.8278 76.7437Z" fill="#E0E1E1"/>
<path d="M21.1348 84.9334L11.8031 87.7797L20.0863 79.5429L29.595 76.7435L21.1348 84.9334Z" fill="#A0A0A0"/>
<path d="M80.5702 76.8253H29.2154L32.6238 70.9652L83.931 71.2963L80.5702 76.8253Z" fill="#A0A0A0"/>
<path d="M37.9966 102.673C37.9966 102.066 37.5044 101.573 36.8972 101.573C36.29 101.573 35.7978 102.066 35.7978 102.673C35.7978 103.28 36.29 103.772 36.8972 103.772C37.5044 103.772 37.9966 103.28 37.9966 102.673Z" fill="#A0A0A0"/>
<path d="M56.3425 102.673C56.3425 102.066 55.8503 101.573 55.2431 101.573C54.6361 101.573 54.1437 102.066 54.1437 102.673C54.1437 103.28 54.6361 103.772 55.2431 103.772C55.8503 103.772 56.3425 103.28 56.3425 102.673Z" fill="#A0A0A0"/>
<path d="M39.5001 111.895C39.5001 111.895 41.6078 107.942 46.1562 107.942C50.7044 107.942 52.1608 111.637 52.1608 111.637" stroke="#A0A0A0" stroke-width="0.569642" stroke-miterlimit="10"/>
<path d="M48.152 119.339C42.9614 120.98 41.247 119.956 40.6908 118.97C40.3963 118.421 40.5928 117.738 41.1338 117.429C44.0838 115.695 46.7413 113.506 49.0081 110.943C49.5856 110.286 49.8894 109.884 49.8894 109.884C49.8894 109.884 53.9103 109.123 54.888 109.884C55.1324 110.075 55.3033 110.606 55.4197 111.295C55.7709 113.359 55.6494 116.841 55.6494 116.841C55.6494 116.841 56.4106 116.731 48.152 119.339Z" fill="#F8D3DC"/>
<path d="M75.971 117.817C75.971 117.817 75.8628 119.991 72.3846 120.207C68.9067 120.424 68.6899 118.576 69.1247 116.839C69.4397 115.579 69.6974 112.319 69.8155 110.621C69.8595 109.976 69.8842 109.558 69.8842 109.558C69.8842 109.558 75.318 109.015 74.775 110.542C74.6681 110.947 74.6371 111.367 74.6833 111.783C74.8241 114.019 75.971 117.817 75.971 117.817Z" fill="#F8D3DC"/>
<path d="M55.4149 111.295L55.3181 111.407C53.2525 113.689 48.9067 111.407 48.9067 111.407L49.0036 110.944C49.581 110.288 49.8846 109.886 49.8846 109.886C49.8846 109.886 53.9055 109.125 54.8832 109.886C55.1343 110.075 55.305 110.606 55.4149 111.295Z" fill="black" fill-opacity="0.1"/>
<path d="M74.7733 110.536C74.6665 110.94 74.6352 111.361 74.6815 111.776C73.2607 112.268 70.744 111.104 69.814 110.628C69.8582 109.983 69.8827 109.565 69.8827 109.565C69.8827 109.565 75.3195 109.015 74.7733 110.536Z" fill="black" fill-opacity="0.1"/>
<path d="M78.253 89.1281C79.1225 90.9754 76.7321 104.877 76.7321 104.877C76.7321 104.877 76.6238 109.007 75.4278 110.962C74.2317 112.918 69.4513 110.201 69.4513 110.201C69.4513 110.201 71.2988 102.49 70.5374 100.42C69.7762 98.3496 71.0806 89.8829 71.0806 89.8829C71.0806 89.8829 68.7985 81.406 69.1251 79.1238C69.4513 76.8419 67.3859 69.4447 67.3859 69.4447C67.3859 69.4447 62.6038 83.6814 60.3216 85.7454C58.0398 87.8092 58.4745 92.1565 58.4745 92.1565C60.3216 97.2637 56.4089 105.089 56.4089 105.089C56.4089 105.089 57.3933 108.892 55.3226 111.174C53.2524 113.456 48.9117 111.174 48.9117 111.174L50.3288 104.451L51.3133 90.1058C51.3133 90.1058 51.8563 86.0849 52.2978 78.9123C52.7391 71.7398 55.5575 63.6977 55.5575 63.6977L56.0297 60.387L56.4272 57.6113C56.4272 57.6113 78.4873 56.8501 79.0306 56.7416C79.1665 56.7139 79.2356 57.5441 79.2421 58.8514C79.2668 62.7512 78.7499 70.898 77.9427 73.259C76.8566 76.4103 77.8347 82.9382 77.8347 82.9382C77.8347 82.9382 77.3835 87.2807 78.253 89.1281Z" fill="#06180B"/>
<path d="M66.1916 69.4578C66.1916 69.4578 61.4093 83.6948 59.1273 85.7585C56.8453 87.8223 57.2799 92.1698 57.2799 92.1698C59.1273 97.2768 55.2144 105.102 55.2144 105.102C55.2144 105.102 56.1989 108.905 54.1285 111.187C53.6048 111.752 52.8906 112.102 52.1237 112.171C53.2721 112.291 54.4845 112.117 55.3228 111.187C57.3883 108.905 56.4087 105.102 56.4087 105.102C56.4087 105.102 60.3216 97.2785 58.4743 92.1698C58.4743 92.1698 58.0394 87.8223 60.3216 85.7585C62.0754 84.172 65.3024 75.4048 66.705 71.4247C66.4164 70.2632 66.1916 69.4578 66.1916 69.4578Z" fill="black" fill-opacity="0.1"/>
<path d="M77.8184 82.9333C77.8184 82.9333 76.8338 76.4137 77.9266 73.2539C78.7469 70.8933 79.2489 62.7463 79.226 58.8465C79.226 57.534 79.1506 56.7139 79.0142 56.7369C78.947 56.7498 78.5418 56.7745 77.8871 56.8057C77.9792 57.0288 78.0252 57.7769 78.0316 58.8482C78.0563 62.7478 77.5394 70.895 76.7323 73.2556C75.6463 76.4072 76.624 82.935 76.624 82.935C76.624 82.935 76.1892 87.2825 77.0587 89.1298C77.9283 90.977 75.5379 104.879 75.5379 104.879C75.5379 104.879 75.4297 109.008 74.2336 110.964C74.0109 111.316 73.6474 111.555 73.2362 111.62C74.1666 111.758 75.0131 111.643 75.428 110.964C76.624 109.008 76.7323 104.879 76.7323 104.879C76.7323 104.879 79.1225 90.9688 78.253 89.1298C77.3835 87.2906 77.8184 82.9333 77.8184 82.9333Z" fill="black" fill-opacity="0.1"/>
<path d="M74.9931 19.4697L74.2319 26.9672C74.2319 26.9672 62.1688 29.5756 63.4731 25.3363C64.0898 23.33 64.1293 21.176 63.9865 19.4648C63.9489 19.0023 63.9013 18.5724 63.8471 18.1869C63.7588 17.521 63.6341 16.8604 63.4731 16.2084C63.4731 16.2084 72.8243 9.14403 72.3846 13.9264C72.2837 14.83 72.342 15.7447 72.5568 16.6284C72.6937 17.1693 72.927 17.6813 73.2459 18.1392C74.0154 19.2254 74.9931 19.4697 74.9931 19.4697Z" fill="#FCC2CC"/>
<path d="M79.226 58.8548C78.6763 59.5923 77.8581 60.0834 76.9489 60.2214L71.9549 61.9685H71.9433L70.4292 62.4985L69.7944 60.9367L69.0167 59.0206V62.4985C69.0167 62.4985 59.4751 63.1549 56.0136 60.384L56.4107 57.6081C56.4107 57.6081 78.4712 56.8469 79.0143 56.7384C79.1506 56.7172 79.2193 57.5456 79.226 58.8548Z" fill="black" fill-opacity="0.1"/>
<path d="M95.2065 42.0736C90.5343 44.5737 84.3396 49.7842 84.3396 49.7842C84.3396 49.7842 79.7755 48.1535 80.9713 45.9815C82.1674 43.8093 88.6822 39.57 88.6822 39.57C88.6822 39.57 89.0101 38.2659 87.5961 37.5047C86.1819 36.7434 84.118 34.8961 84.118 34.8961C84.118 34.8961 79.2277 45.4367 80.2054 52.5011C81.1831 59.5652 76.9455 59.8834 76.9455 59.8834L71.9516 61.6307H71.9402L70.4259 62.1607L69.791 60.5989L69.0134 58.6826V62.1607C69.0134 62.1607 57.9282 62.9219 55.3211 59.3356C55.3211 59.3356 57.7115 49.7727 57.0602 46.0781C56.4089 42.3836 55.6477 23.801 55.6477 23.801L63.9603 19.6175C63.9603 19.6175 65.5863 23.166 67.719 23.7453C67.9658 23.8142 68.2231 23.8387 68.4785 23.8173C68.9004 23.7673 69.3028 23.6116 69.6482 23.3646C71.6613 22.0275 73.315 18.2215 73.315 18.2215C73.315 18.2215 77.0636 20.5346 80.7287 21.2482C81.7971 21.4497 82.7771 21.977 83.534 22.7576C83.931 23.1726 84.3968 23.65 84.8892 24.1439C86.3017 25.5564 96.0826 35.0109 96.0826 35.0109C96.0826 35.0109 99.874 39.5734 95.2065 42.0736Z" fill="#11491E"/>
<path d="M84.4526 47.9416L83.0251 49.4529L82.6051 49.8989C82.6051 49.8989 78.8023 53.3769 77.8229 53.267C76.8435 53.1571 75.2145 46.5293 77.1667 46.9641C78.3546 47.2282 79.744 46.8114 80.6497 46.4423C80.982 46.3092 81.3063 46.1571 81.6209 45.9862L84.4526 47.9416Z" fill="#FCC2CC"/>
<path d="M68.9084 24.577C69.0886 24.577 69.235 24.7232 69.235 24.9034C69.235 25.0838 69.0886 25.2298 68.9084 25.2298C68.7282 25.2298 68.5818 25.0838 68.5818 24.9034C68.5818 24.7232 68.7282 24.577 68.9084 24.577Z" fill="white"/>
<path d="M68.2554 35.6605C68.4356 35.6605 68.5818 35.8067 68.5818 35.9869C68.5818 36.1673 68.4356 36.3133 68.2554 36.3133C68.075 36.3133 67.9288 36.1673 67.9288 35.9869C67.9288 35.8067 68.075 35.6605 68.2554 35.6605Z" fill="white"/>
<path d="M67.7124 47.1804C67.8927 47.1804 68.0388 47.3266 68.0388 47.507C68.0388 47.6872 67.8927 47.8335 67.7124 47.8335C67.5322 47.8335 67.3858 47.6872 67.3858 47.507C67.3858 47.3266 67.5322 47.1804 67.7124 47.1804Z" fill="white"/>
<path d="M68.3654 52.9389C68.5457 52.9389 68.6918 53.0851 68.6918 53.2653C68.6918 53.4457 68.5457 53.5917 68.3654 53.5917C68.1852 53.5917 68.0388 53.4457 68.0388 53.2653C68.0388 53.0851 68.1852 52.9389 68.3654 52.9389Z" fill="white"/>
<path d="M79.5588 37.291H72.6027V30.3366L76.0808 29.3574L79.5588 30.3366V37.291Z" fill="black" fill-opacity="0.1"/>
<path d="M68.5818 29.6838C68.7622 29.6838 68.9082 29.8302 68.9082 30.0104C68.9082 30.1908 68.7622 30.337 68.5818 30.337C68.4016 30.337 68.2552 30.1908 68.2552 30.0104C68.2552 29.8302 68.4016 29.6838 68.5818 29.6838Z" fill="white"/>
<path d="M76.2974 30.0102C76.4778 30.0102 76.6238 30.1566 76.6238 30.337C76.6238 30.5172 76.4778 30.6634 76.2974 30.6634C76.1172 30.6634 75.9708 30.5172 75.9708 30.337C75.9708 30.1566 76.1172 30.0102 76.2974 30.0102Z" fill="white"/>
<path d="M67.9305 41.637C68.1107 41.637 68.2571 41.7834 68.2571 41.9636C68.2571 42.144 68.1107 42.2902 67.9305 42.2902C67.7503 42.2902 67.6039 42.144 67.6039 41.9636C67.6039 41.7834 67.7503 41.637 67.9305 41.637Z" fill="white"/>
<path d="M84.4526 47.9418L83.0253 49.4529C80.996 48.6324 80.6024 46.4818 80.6024 46.4818L80.6548 46.4423C80.9871 46.3092 81.3114 46.1571 81.6259 45.9862L84.4526 47.9418Z" fill="#11491E"/>
<path d="M71.9566 61.6421H71.9448L70.3748 62.2259L69.7942 60.6101L67.3333 53.7493L67.719 23.7453C67.9656 23.8144 68.2229 23.8387 68.4785 23.8172C68.9002 23.7673 69.3028 23.6116 69.6484 23.3646L69.1822 52.8946L71.9566 61.6421Z" fill="black" fill-opacity="0.1"/>
<path d="M69.9027 15.5454C69.8252 15.67 69.7428 15.7934 69.6582 15.9119C67.7622 18.5555 65.4648 19.2109 62.6185 17.6347C62.1402 17.2329 61.3115 16.3738 61.0998 15.7362C61.0998 15.7362 69.5801 8.06499 69.5173 12.8671C69.4885 13.7756 69.6189 14.6821 69.9027 15.5454Z" fill="black" fill-opacity="0.1"/>
<path d="M72.7191 9.81963C72.9938 13.3499 68.4501 17.9593 64.9199 18.234C61.3942 18.5085 60.2166 14.3513 59.936 10.8261L59.9167 10.581C59.7772 7.04281 62.5324 4.0616 66.0705 3.92225C69.5092 3.78654 72.4414 6.38964 72.7142 9.82002L72.7191 9.81963Z" fill="#FCC2CC"/>
<path d="M67.218 9.21608C67.6216 9.11687 68.0597 9.01838 68.441 9.17768C69.2696 9.52214 69.1773 10.6911 69.6723 11.4189C69.8678 11.7079 70.1653 11.9332 70.3056 12.2513C70.4459 12.5694 70.4076 12.9838 70.6125 13.2854C70.9083 13.7211 71.6184 13.7326 72.0598 13.4247C72.5013 13.1169 72.7206 12.5977 72.8568 12.0899C72.9762 11.6428 73.0675 11.1518 73.4165 10.838C73.5454 10.7505 73.6587 10.642 73.7516 10.517C73.816 10.3561 73.8318 10.1796 73.7971 10.0098C73.7101 8.90432 73.4709 8.06071 73.6368 6.9696C73.9016 5.21092 74.0976 3.02014 72.7277 1.83948C72.0269 1.24307 71.1571 0.881287 70.2402 0.804344C69.4117 0.734726 68.2979 1.97114 67.4683 2.01018C65.3569 2.09243 63.4271 0.282745 61.4699 1.07034C60.6142 1.41504 59.8977 2.03486 59.4335 2.83177C58.5658 4.35488 58.8013 6.21589 59.0795 7.9301C59.0875 8.06127 59.1359 8.1866 59.2179 8.28948C59.2985 8.37189 59.4213 8.41003 59.5005 8.49426C59.5871 8.60706 59.6281 8.74858 59.6141 8.89025C59.6145 9.17288 59.5703 9.45406 59.4839 9.72314C59.4362 9.81585 59.4339 9.92535 59.4776 10.02C59.5222 10.0713 59.583 10.1062 59.6501 10.1182C60.4908 10.3484 61.3294 9.71116 62.2054 9.65684C63.0815 9.60272 63.9586 10.1228 64.8513 9.92411C65.638 9.73875 66.4254 9.41181 67.218 9.21608Z" fill="#5B4B3E"/>
<path d="M57.3967 15.9363C57.3967 15.9363 49.2843 21.8667 49.2007 23.6397C50.4445 22.7643 55.5746 20.2884 61.4068 21.0312C65.4342 21.5441 59.0067 29.5686 56.2913 28.1203C55.5199 27.7089 47.024 29.8515 43.5196 29.0908C42.4183 28.8518 41.8031 26.677 41.9877 25.5653C43.0673 19.0611 54.7905 15.389 54.9925 11.5788L56.6893 11.3492" fill="#11491E"/>
<path d="M56.4604 11.5872C56.4604 11.5872 59.4883 5.0573 60.7585 5.81031C62.0285 6.5633 65.6312 10.8934 62.9418 12.5863C60.2521 14.2792 58.3645 15.0571 58.3645 15.0571L56.3135 14.7009L56.4604 11.5872Z" fill="#FCC2CC"/>
<path d="M54.6564 11.2533C54.6564 11.2533 57.5739 9.74302 59.3055 15.7537L57.3969 15.9362L55.287 14.5309L54.6564 11.2533Z" fill="#11491E"/>
<path d="M84.33 97.3326C84.33 97.3326 73.2316 104.026 93.6862 114.327C93.6862 114.327 98.1911 105.96 93.2105 99.1404C91.209 96.3879 87.4649 95.5676 84.4957 97.231L84.33 97.3326Z" fill="#317B42"/>
<path d="M84.4581 97.1915C84.4581 97.1915 93.9537 104.456 93.6863 114.327" stroke="#525360" stroke-width="0.189881" stroke-miterlimit="10"/>
<path d="M94.2309 115.274C94.2309 115.274 90.7544 103.462 94.8871 94.7816C96.642 91.1482 97.171 87.0438 96.3948 83.0844C96.0067 81.2074 95.4469 79.3699 94.7231 77.5949" stroke="#525360" stroke-width="0.379762" stroke-miterlimit="10"/>
<path d="M97.2971 72.1056C97.2971 73.5525 94.6722 77.7476 94.6722 77.7476C94.6722 77.7476 92.0473 73.5525 92.0473 72.1056C92.143 70.6591 93.3933 69.5641 94.84 69.66C96.1529 69.7469 97.1984 70.7926 97.2855 72.1056H97.2971Z" fill="#6C62FF"/>
<path d="M101.627 80.118C100.841 81.3321 96.3619 83.4303 96.3619 83.4303C96.3619 83.4303 96.444 78.4856 97.2299 77.2717C98.0959 76.1093 99.7405 75.8689 100.903 76.7351C101.959 77.522 102.269 78.9698 101.627 80.1197V80.118Z" fill="#6C62FF"/>
<path d="M101.438 93.8119C100.147 94.4681 95.2219 94.0135 95.2219 94.0135C95.2219 94.0135 97.7876 89.786 99.0805 89.1345C100.415 88.5679 101.956 89.1903 102.522 90.5246C103.037 91.7368 102.574 93.1431 101.44 93.8119H101.438Z" fill="#6C62FF"/>
<path d="M98.9607 104.141C97.7975 105.001 92.8676 105.389 92.8676 105.389C92.8676 105.389 94.6821 100.796 95.8453 99.9281C97.0624 99.1405 98.6876 99.4889 99.4749 100.706C100.193 101.816 99.9735 103.287 98.9624 104.139L98.9607 104.141Z" fill="#6C62FF"/>
<path d="M90.8613 83.7109C91.898 84.7183 96.7328 85.7634 96.7328 85.7634C96.7328 85.7634 95.5483 80.9615 94.5116 79.9542C93.4068 79.0154 91.7503 79.1496 90.8113 80.2542C89.9597 81.2562 89.981 82.7338 90.8613 83.7109Z" fill="#6C62FF"/>
<path d="M88.1198 95.8264C89.411 96.4826 94.3357 96.0282 94.3357 96.0282C94.3357 96.0282 91.7701 91.8005 90.4772 91.1492C89.2285 90.4128 87.6191 90.8285 86.8829 92.0773C86.1466 93.326 86.5622 94.9354 87.811 95.6716C87.91 95.7297 88.0125 95.7815 88.1181 95.8264H88.1198Z" fill="#6C62FF"/>
<path d="M87.0699 107.968C88.2331 108.828 93.1628 109.217 93.1628 109.217C93.1628 109.217 91.3483 104.623 90.1851 103.755C89.0766 102.821 87.4206 102.963 86.4866 104.072C85.5526 105.18 85.6941 106.836 86.8028 107.77C86.8869 107.841 86.9758 107.907 87.0682 107.967L87.0699 107.968Z" fill="#6C62FF"/>
<path d="M97.2971 72.1056C97.2971 73.5525 94.6722 77.7476 94.6722 77.7476C94.6722 77.7476 92.0473 73.5525 92.0473 72.1056C92.143 70.6591 93.3933 69.5641 94.84 69.66C96.1529 69.7469 97.1984 70.7926 97.2855 72.1056H97.2971Z" fill="#1D3E25"/>
<path d="M101.627 80.118C100.841 81.3321 96.3619 83.4303 96.3619 83.4303C96.3619 83.4303 96.444 78.4856 97.2299 77.2717C98.0959 76.1093 99.7405 75.8689 100.903 76.7351C101.959 77.522 102.269 78.9698 101.627 80.1197V80.118Z" fill="#1D3E25"/>
<path d="M101.438 93.8119C100.147 94.4681 95.2219 94.0135 95.2219 94.0135C95.2219 94.0135 97.7876 89.786 99.0805 89.1345C100.415 88.5679 101.956 89.1903 102.522 90.5246C103.037 91.7368 102.574 93.1431 101.44 93.8119H101.438Z" fill="#1D3E25"/>
<path d="M98.9607 104.141C97.7975 105.001 92.8676 105.389 92.8676 105.389C92.8676 105.389 94.6821 100.796 95.8453 99.9281C97.0624 99.1405 98.6876 99.4889 99.4749 100.706C100.193 101.816 99.9735 103.287 98.9624 104.139L98.9607 104.141Z" fill="#1D3E25"/>
<path d="M90.8613 83.7109C91.898 84.7183 96.7328 85.7634 96.7328 85.7634C96.7328 85.7634 95.5483 80.9615 94.5116 79.9542C93.4068 79.0154 91.7503 79.1496 90.8113 80.2542C89.9597 81.2562 89.981 82.7338 90.8613 83.7109Z" fill="#1D3E25"/>
<path d="M88.1198 95.8264C89.411 96.4826 94.3357 96.0282 94.3357 96.0282C94.3357 96.0282 91.7701 91.8005 90.4772 91.1492C89.2285 90.4128 87.6191 90.8285 86.8829 92.0773C86.1466 93.326 86.5622 94.9354 87.811 95.6716C87.91 95.7297 88.0125 95.7815 88.1181 95.8264H88.1198Z" fill="#1D3E25"/>
<path d="M87.0699 107.968C88.2331 108.828 93.1628 109.217 93.1628 109.217C93.1628 109.217 91.3483 104.623 90.1851 103.755C89.0766 102.821 87.4206 102.963 86.4866 104.072C85.5526 105.18 85.6941 106.836 86.8028 107.77C86.8869 107.841 86.9758 107.907 87.0682 107.967L87.0699 107.968Z" fill="#1D3E25"/>
<path d="M102.27 115.499C102.27 115.499 98.7932 103.686 102.926 95.0062C104.681 91.3728 105.21 87.2684 104.434 83.309C104.051 81.4326 103.497 79.5951 102.778 77.8195" stroke="#525360" stroke-width="0.379762" stroke-miterlimit="10"/>
<path d="M105.343 72.3286C105.343 73.7756 102.718 77.9705 102.718 77.9705C102.718 77.9705 100.093 73.7756 100.093 72.3286C100.188 70.882 101.439 69.7874 102.886 69.8831C104.199 69.9702 105.244 71.0157 105.331 72.3286H105.343Z" fill="#317B42"/>
<path d="M109.672 80.3427C108.886 81.5567 104.402 83.6485 104.402 83.6485C104.402 83.6485 104.485 78.7038 105.27 77.4899C106.137 76.3274 107.781 76.087 108.943 76.9531C110 77.7401 110.309 79.1878 109.667 80.3379L109.672 80.3427Z" fill="#317B42"/>
<path d="M109.488 94.0367C108.197 94.6929 103.272 94.2383 103.272 94.2383C103.272 94.2383 105.838 90.0108 107.131 89.3594C108.466 88.796 110.006 89.422 110.569 90.7576C111.08 91.9674 110.618 93.3679 109.488 94.0367Z" fill="#317B42"/>
<path d="M107.006 104.366C105.843 105.225 100.913 105.614 100.913 105.614C100.913 105.614 102.727 101.021 103.891 100.153C105.108 99.3651 106.733 99.7136 107.52 100.931C108.238 102.041 108.019 103.512 107.008 104.364L107.006 104.366Z" fill="#317B42"/>
<path d="M98.9066 83.9356C99.9433 84.9429 104.778 85.988 104.778 85.988C104.778 85.988 103.594 81.1861 102.557 80.1788C101.452 79.24 99.7958 79.3742 98.8566 80.4788C98.005 81.4808 98.0263 82.9584 98.9066 83.9356Z" fill="#317B42"/>
<path d="M96.1635 96.0511C97.4547 96.7073 102.38 96.2529 102.38 96.2529C102.38 96.2529 99.8087 92.0252 98.5226 91.3739C97.1879 90.8073 95.6471 91.4296 95.0805 92.7639C94.5657 93.9762 95.029 95.3823 96.1635 96.0513V96.0511Z" fill="#317B42"/>
<path d="M95.1135 108.193C96.2767 109.052 101.207 109.442 101.207 109.442C101.207 109.442 99.3921 104.848 98.2289 103.98C97.1202 103.046 95.4644 103.188 94.5302 104.297C93.5962 105.405 93.7378 107.061 94.8463 107.995C94.9306 108.066 95.0193 108.132 95.1118 108.192L95.1135 108.193Z" fill="#317B42"/>
<path d="M4.55436 96.2963C4.55436 96.2963 -7.03514 102.098 12.5475 113.973C12.5475 113.973 17.6955 105.986 13.2654 98.7958C11.4861 95.8945 7.81816 94.7828 4.72759 96.208L4.55436 96.2963Z" fill="#11491E"/>
<path d="M4.69298 96.1656C4.69298 96.1656 13.589 104.153 12.5477 113.973" stroke="#CBCCDD" stroke-width="0.189881" stroke-miterlimit="10"/>
</svg>
