<svg width="80" height="88" viewBox="0 0 80 88" fill="none" xmlns="http://www.w3.org/2000/svg">
<path d="M76.799 48C78.5669 48 80.0133 49.4354 79.872 51.1976C79.5386 55.3552 78.5563 59.4418 76.9552 63.3073C74.945 68.1604 71.9986 72.5699 68.2843 76.2843C64.5699 79.9986 60.1604 82.945 55.3073 84.9552C50.4543 86.9654 45.2529 88 40 88C34.7471 88 29.5457 86.9654 24.6927 84.9552C19.8396 82.945 15.4301 79.9986 11.7157 76.2843C8.00138 72.5699 5.05501 68.1604 3.04482 63.3073C1.44366 59.4418 0.461436 55.3552 0.128012 51.1976C-0.0133116 49.4354 1.43313 48 3.20099 48C4.96885 48 6.38618 49.4363 6.55436 51.1962C6.87125 54.5123 7.68016 57.7688 8.95948 60.8574C10.6479 64.9337 13.1228 68.6375 16.2426 71.7574C19.3625 74.8773 23.0663 77.3521 27.1426 79.0405C31.2189 80.729 35.5878 81.598 40 81.598C44.4122 81.598 48.7811 80.729 52.8574 79.0405C56.9337 77.3521 60.6375 74.8773 63.7574 71.7574C66.8773 68.6375 69.3521 64.9337 71.0405 60.8574C72.3198 57.7688 73.1287 54.5123 73.4456 51.1962C73.6138 49.4363 75.0312 48 76.799 48Z" fill="#F9FAF9"/>
<path d="M3.35965 43.4135C1.59942 43.5775 0.0260585 42.2824 0.00330891 40.5147C-0.0521042 36.209 0.588072 31.9152 1.90561 27.8009C3.54913 22.6687 6.21277 17.9214 9.73661 13.8442C13.2605 9.76693 17.5719 6.44378 22.412 4.07423C27.2521 1.70468 32.5211 0.337587 37.9027 0.055023C43.2843 -0.227541 48.6675 0.580252 53.7291 2.42991C58.7907 4.27956 63.4264 7.13294 67.3579 10.8187C71.2893 14.5045 74.4355 18.9467 76.6074 23.8787C78.3486 27.8324 79.4349 32.0354 79.8307 36.3233C79.9932 38.0837 78.5641 39.5364 76.7963 39.5577C75.0286 39.5789 73.5941 38.1597 73.4048 36.402C73.0359 32.9772 72.1418 29.623 70.7484 26.4589C68.9241 22.3163 66.2815 18.5851 62.9793 15.4892C59.677 12.3933 55.7833 9.9966 51.5318 8.44299C47.2802 6.88937 42.7586 6.21086 38.2383 6.4482C33.7181 6.68554 29.2924 7.83383 25.2269 9.82414C21.1615 11.8144 17.5401 14.6057 14.5803 18.0304C11.6204 21.4551 9.38308 25.4425 8.0026 29.7534C6.9482 33.046 6.41028 36.4754 6.40208 39.92C6.39787 41.6879 5.11989 43.2495 3.35965 43.4135Z" fill="#F9FAF9"/>
<path d="M48.0249 57.8033C49.443 58.8105 49.9197 60.7252 48.9559 62.1732C46.2882 66.1812 42.725 69.2849 38.635 71.1249C33.6952 73.3473 28.2641 73.6016 23.1874 71.8483C18.1108 70.0949 13.6736 66.4324 10.5667 61.4309C7.45989 56.4294 5.85779 50.3697 6.00991 44.1955C6.16203 38.0212 8.05984 32.0789 11.4078 27.2939C14.7558 22.5089 19.366 19.1497 24.5206 17.7395C29.6752 16.3293 35.0848 16.9472 39.907 19.4969C43.9044 21.6105 47.3122 24.9532 49.7788 29.1401C50.6614 30.6384 50.0764 32.5243 48.5994 33.4421C46.8294 34.542 44.5138 33.8131 43.3057 32.1151C41.6424 29.7772 39.5376 27.8937 37.1381 26.625C33.6636 24.7879 29.7659 24.3427 26.0521 25.3587C22.3382 26.3748 19.0165 28.7951 16.6043 32.2427C14.1921 35.6903 12.8247 39.9718 12.7151 44.4203C12.6055 48.8689 13.7598 53.2349 15.9983 56.8385C18.2368 60.4421 21.4338 63.081 25.0915 64.3442C28.7493 65.6075 32.6624 65.4243 36.2216 63.8231C38.6525 62.7294 40.8252 61.0162 42.5904 58.8287C43.9161 57.1859 46.3038 56.5807 48.0249 57.8033Z" fill="#F9FAF9"/>
</svg>
