<svg width="12" height="14" viewBox="0 0 12 14" fill="none" xmlns="http://www.w3.org/2000/svg">
<path d="M10.0835 4.08333L9.57775 11.1662C9.55679 11.4605 9.42508 11.736 9.20915 11.9371C8.99321 12.1382 8.70908 12.25 8.414 12.25H3.58633C3.29124 12.25 3.00712 12.1382 2.79118 11.9371C2.57524 11.736 2.44353 11.4605 2.42258 11.1662L1.91683 4.08333M4.8335 6.41667V9.91667M7.16683 6.41667V9.91667M7.75016 4.08333V2.33333C7.75016 2.17862 7.6887 2.03025 7.57931 1.92085C7.46991 1.81146 7.32154 1.75 7.16683 1.75H4.8335C4.67879 1.75 4.53041 1.81146 4.42102 1.92085C4.31162 2.03025 4.25016 2.17862 4.25016 2.33333V4.08333M1.3335 4.08333H10.6668" stroke="black" stroke-width="2" stroke-linecap="round" stroke-linejoin="round"/>
</svg>
